<svg xmlns="http://www.w3.org/2000/svg" viewBox="0 0 70 40"><path fill="#7831B2" d="M6.72 34.03a1 1 0 1 0-1.44 1.4l1.44-1.4ZM68.2 11.32a1 1 0 0 0 .77-1.2l-1.9-8.8a1 1 0 0 0-1.95.43l1.68 7.82-7.8 1.68a1 1 0 1 0 .42 1.95l8.8-1.88ZM5.28 35.42c2.44 2.52 4.92 3.62 7.47 3.46 2.5-.16 4.85-1.5 7.09-3.4l-1.3-1.53c-2.11 1.79-4.05 2.82-5.91 2.93-1.8.12-3.75-.62-5.91-2.85l-1.44 1.4Zm14.56.05c3.07-2.6 6.17-6.44 9.4-10.38 3.27-3.98 6.7-8.1 10.49-11.43 3.78-3.32 7.84-5.77 12.35-6.5 4.48-.72 9.54.25 15.38 4.02l1.08-1.68c-6.17-4-11.72-5.12-16.77-4.31-5.03.8-9.43 3.52-13.36 6.97-3.93 3.45-7.45 7.7-10.7 11.66-3.3 4-6.27 7.67-9.16 10.13l1.29 1.52Zm-14.49.1c2.43 2.51 4.9 3.6 7.45 3.4 2.49-.18 4.82-1.57 7.05-3.5l-1.31-1.52c-2.1 1.84-4.04 2.9-5.89 3.03-1.79.14-3.71-.58-5.86-2.8l-1.44 1.4Zm14.5-.1c3.07-2.68 6.17-6.62 9.4-10.67 3.26-4.1 6.69-8.34 10.47-11.77 3.79-3.43 7.85-5.98 12.36-6.77 4.48-.79 9.54.13 15.38 3.91l1.08-1.68c-6.18-4-11.74-5.09-16.8-4.2-5.04.88-9.44 3.7-13.36 7.26-3.92 3.56-7.44 7.93-10.7 12-3.27 4.1-6.25 7.88-9.14 10.4l1.31 1.51Z"/></svg>