<svg xmlns="http://www.w3.org/2000/svg" viewBox="0 0 86 86"><path fill="#FAD352" d="M4.23 81.32a1 1 0 1 0 .82 1.83l-.82-1.83Zm79.5-72.4a1 1 0 0 0-.19-1.4L76.35 2.1a1 1 0 1 0-1.2 1.6l6.39 4.81-4.82 6.39a1 1 0 1 0 1.6 1.2l5.42-7.18ZM6.5 80.29a1 1 0 1 0 .81 1.83l-.81-1.83Zm-1.44 2.86c12.88-5.78 20.45-12.83 25.5-20.32 5-7.45 7.5-15.32 10.24-22.53 2.76-7.25 5.79-13.89 11.84-19.27 6.04-5.37 15.22-9.6 30.45-11.72l-.28-1.98c-15.47 2.16-25.06 6.48-31.5 12.2-6.43 5.73-9.6 12.76-12.38 20.06-2.8 7.35-5.2 14.92-10.04 22.13-4.82 7.16-12.08 13.97-24.65 19.6l.82 1.83Zm2.25-1.03c12.9-5.78 20.24-12.84 24.94-20.36 4.67-7.47 6.7-15.36 8.98-22.58 2.3-7.27 4.89-13.9 10.58-19.27 5.7-5.36 14.63-9.58 29.86-11.72l-.28-1.98c-15.46 2.17-24.85 6.5-30.95 12.25-6.1 5.75-8.8 12.8-11.11 20.11-2.34 7.36-4.28 14.93-8.78 22.13-4.47 7.15-11.5 13.97-24.05 19.6l.81 1.82Z"/></svg>