<svg xmlns="http://www.w3.org/2000/svg" viewBox="0 0 24 24"><path d="M12 1.06c-1.89 0-3.78.03-4.73.08-1.83.08-3.45.48-4.8 1.76C1.13 4.18.71 5.73.62 7.48c-.1 1.81-.1 7.22 0 9.03.09 1.75.5 3.3 1.85 4.58 1.35 1.28 2.97 1.68 4.8 1.77 1.9.1 7.57.1 9.46 0 1.83-.08 3.46-.48 4.8-1.77 1.34-1.28 1.76-2.83 1.85-4.58.1-1.8.1-7.21 0-9.02-.09-1.75-.5-3.3-1.85-4.58-1.34-1.28-2.97-1.68-4.8-1.77-.95-.05-2.84-.08-4.73-.08Zm6.12 3.8c.75 0 1.37.58 1.37 1.3 0 .73-.62 1.31-1.37 1.31-.76 0-1.37-.59-1.37-1.3 0-.73.61-1.32 1.37-1.32zM12 6.38c3.25 0 5.88 2.5 5.88 5.61 0 3.1-2.63 5.6-5.88 5.6A5.74 5.74 0 0 1 6.13 12c0-3.1 2.62-5.61 5.87-5.61zm0 1.96A3.74 3.74 0 0 0 8.18 12 3.74 3.74 0 0 0 12 15.65c2.1 0 3.82-1.64 3.82-3.65A3.74 3.74 0 0 0 12 8.35z"/></svg>