<svg xmlns="http://www.w3.org/2000/svg" viewBox="0 0 32 32"><path d="M25.52 6.38c1.35 1.28 1.77 2.83 1.86 4.59.1 1.8.1 7.21 0 9.02-.1 1.75-.52 3.3-1.86 4.58s-2.96 1.68-4.8 1.77c-1.89.1-7.56.1-9.45 0-1.83-.1-3.46-.5-4.8-1.77-1.34-1.28-1.76-2.83-1.85-4.58-.1-1.8-.1-7.22 0-9.03.1-1.75.5-3.3 1.85-4.58 1.34-1.28 2.97-1.68 4.8-1.76 1.9-.1 7.56-.1 9.45 0 1.84.08 3.46.48 4.8 1.76zM16 9.87a5.74 5.74 0 0 0-5.87 5.6c0 3.11 2.62 5.62 5.87 5.62s5.87-2.5 5.87-5.61c0-3.1-2.62-5.61-5.87-5.61zm6.11-1.53c-.75 0-1.37.58-1.37 1.3s.61 1.3 1.37 1.3c.77 0 1.37-.57 1.37-1.3 0-.72-.61-1.3-1.37-1.3zM16 19.12a3.74 3.74 0 0 1-3.82-3.64A3.74 3.74 0 0 1 16 11.83c2.1 0 3.82 1.64 3.82 3.65A3.74 3.74 0 0 1 16 19.12z"/></svg>