<svg xmlns="http://www.w3.org/2000/svg" viewBox="0 0 24 24"><path d="M22.85 4.56c-.3 3.16-1.6 10.84-2.27 14.38-.28 1.5-.83 2-1.36 2.05-1.16.1-2.05-.77-3.17-1.5-1.76-1.16-2.75-1.88-4.46-3-1.98-1.3-.7-2.02.43-3.19.3-.3 5.4-4.96 5.5-5.38.02-.05.03-.25-.08-.35-.12-.1-.3-.07-.42-.04-.18.04-2.99 1.9-8.44 5.57a3.8 3.8 0 0 1-2.16.8c-.72-.01-2.1-.4-3.11-.73-1.26-.41-2.25-.62-2.16-1.32.04-.36.54-.72 1.48-1.1A812 812 0 0 1 14.3 5.72c5.55-2.3 6.7-2.7 7.46-2.72.16 0 .53.04.77.23.16.14.26.33.29.54.04.26.05.53.03.8z"/></svg>