<svg xmlns="http://www.w3.org/2000/svg" viewBox="0 -2 140 56"><style>:root svg:not(:target){display:none}</style><path id="source" d="M48.97 11.25c.13.09.28.15.43.18.19.03.38.04.57.03H76.6c.11 0 1.5-.03 2.37.77.49.45.75 1.13.8 2.06v.41c0 .2 0 .39.02.58.04.15.1.3.18.43.1.17.27.28.52.35.66.13 1.34.13 2 0a.87.87 0 0 0 .52-.34c.1-.13.16-.27.19-.43l.03-.57v-.36a6.3 6.3 0 0 0-1.95-4.7A7.02 7.02 0 0 0 76.43 8H49.99c-.2 0-.38 0-.57.03-.16.03-.3.09-.44.18-.17.1-.28.27-.35.51a4 4 0 0 0-.1 1 4 4 0 0 0 .1 1c.07.25.18.43.34.53ZM2.03 29.67c0 .3.16.66.48 1.05l.16.2c.25.36.7.73 1.35 1.12.31.21.73.38 1.24.52a5.85 5.85 0 0 0 4.77-.76 3.6 3.6 0 0 0 1.23-1.4c.32-.6.48-1.29.48-2.07 0-.8-.16-1.46-.47-2-.3-.54-.7-.92-1.15-1.14a13.63 13.63 0 0 0-3.02-.89c-.42-.05-.81-.2-1.16-.41a.94.94 0 0 1-.47-.81.91.91 0 0 1 .4-.79c.26-.19.58-.28.98-.28s.72.08.98.24l.28.23.2.19c.38.24.7.36.95.36.44 0 .86-.3 1.28-.91.29-.42.43-.76.43-1s-.19-.54-.56-.9l-.46-.34a3.8 3.8 0 0 0-1.25-.57 6.65 6.65 0 0 0-1.99-.28c-1.37 0-2.45.4-3.25 1.19-.8.8-1.19 1.73-1.19 2.8A4 4 0 0 0 2.73 25c.31.55.7.95 1.16 1.2a9.83 9.83 0 0 0 2.99 1.08c.4.07.8.2 1.15.41.31.19.47.42.47.7 0 .92-.57 1.38-1.7 1.38a1.7 1.7 0 0 1-.87-.28 2.77 2.77 0 0 1-.72-.6c-.6-.6-1.08-.9-1.42-.9-.34 0-.67.14-.97.44-.52.5-.79.92-.79 1.23Zm78.23-.16a.95.95 0 0 0-.23.3 2.5 2.5 0 0 0-.18 1.06c0 .68.12 1.14.35 1.38.24.24.72.35 1.46.35.73 0 1.2-.17 1.4-.52.08-.16.13-.33.16-.5.03-.22.04-.44.03-.65v-.3c0-.49-.12-.85-.35-1.08-.24-.23-.62-.35-1.15-.35-.53 0-.92.04-1.17.13a.95.95 0 0 0-.32.18Zm.36-1.82c.6.12 1.24.12 1.85 0a.8.8 0 0 0 .5-.32c.08-.12.14-.26.17-.4.02-.2.03-.38.02-.57v-5.77c0-.2 0-.39-.02-.58a1.3 1.3 0 0 0-.17-.43.77.77 0 0 0-.48-.35 4.35 4.35 0 0 0-1.86 0 .8.8 0 0 0-.49.34c-.08.13-.14.27-.17.43l-.03.57v5.77c0 .19 0 .38.03.56.03.15.08.3.16.42.1.16.25.27.49.33Zm-60.26-7.5 4.92 10.16c.2.41.3.72.3.93.01.43-.34.83-1.05 1.18-.41.2-.74.31-.97.3a.97.97 0 0 1-.58-.15 1.1 1.1 0 0 1-.33-.35 16 16 0 0 1-.28-.55l-.95-1.96h-5.04l-.95 1.97-.28.52c-.09.13-.2.25-.33.34a.94.94 0 0 1-.58.17c-.24 0-.56-.1-.98-.3-.7-.35-1.05-.73-1.05-1.17 0-.2.1-.52.3-.93l4.92-10.18a1.66 1.66 0 0 1 1.48-.92c.65 0 1.14.31 1.45.94Zm-1.47 4.37-1.2 2.5h2.42l-1.22-2.5Zm16.75-3.86c0-.39-.3-.79-.9-1.2-.48-.3-.83-.45-1.06-.45-.21 0-.42.05-.6.17a2.7 2.7 0 0 0-.6.72l-2.81 4.5-2.82-4.5a2.43 2.43 0 0 0-.66-.75.91.91 0 0 0-.55-.15c-.23 0-.6.18-1.14.54-.54.36-.8.73-.8 1.12 0 .23.13.55.41.97l3.94 5.88v3.43c0 .22 0 .44.02.65.03.17.1.34.18.5a.8.8 0 0 0 .49.38 4 4 0 0 0 1.85 0 .8.8 0 0 0 .5-.38c.08-.15.14-.31.17-.48.02-.2.03-.42.02-.63v-3.47l3.94-5.88c.28-.42.42-.74.42-.97Zm16.2-1.2c.6.41.89.81.89 1.2 0 .23-.14.55-.42.97l-3.93 5.88v3.47c0 .21 0 .42-.03.63-.03.17-.09.34-.17.49a.8.8 0 0 1-.5.37 4 4 0 0 1-1.85 0 .8.8 0 0 1-.5-.39 1.54 1.54 0 0 1-.16-.49 5.57 5.57 0 0 1-.03-.65v-3.43l-3.93-5.88c-.28-.42-.42-.74-.42-.97 0-.39.27-.76.8-1.12.53-.36.91-.54 1.15-.54.19 0 .38.04.54.15.2.13.43.38.66.74l2.82 4.52 2.82-4.51c.23-.37.43-.6.6-.72a.98.98 0 0 1 .6-.17c.22 0 .57.15 1.06.45Zm10.83 9.86h-5.61v-1.83h3.57c.43 0 .74-.04.95-.11.46-.15.69-.65.69-1.5 0-.77-.17-1.24-.5-1.41a1.46 1.46 0 0 0-.48-.18c-.2-.02-.42-.03-.63-.03h-3.6v-1.83h5.6c.42 0 .73-.04.94-.11.45-.15.67-.65.67-1.5 0-.77-.16-1.25-.49-1.42a1.45 1.45 0 0 0-.48-.17l-.63-.03H55.5c-.65 0-1.09.12-1.32.34-.23.23-.34.65-.34 1.27v10.12c0 .42.04.73.1.93.15.46.65.69 1.5.69h7.21c.42 0 .74-.04.95-.11.45-.15.67-.65.67-1.5 0-.77-.16-1.24-.5-1.41a1.46 1.46 0 0 0-.47-.18l-.63-.03Zm3.09 1.36c-.32-.4-.47-.74-.47-1.05 0-.31.26-.72.78-1.23.3-.3.63-.44.97-.44.34 0 .81.3 1.41.91a3 3 0 0 0 .73.6c.32.18.6.27.88.27 1.13 0 1.69-.46 1.69-1.38 0-.28-.16-.51-.46-.7a3.4 3.4 0 0 0-1.16-.4 9.98 9.98 0 0 1-2.99-1.08A3.01 3.01 0 0 1 66 25a4 4 0 0 1-.47-2c0-1.06.4-2 1.2-2.79.8-.8 1.87-1.2 3.24-1.2.68 0 1.35.1 2 .29.6.19 1.01.38 1.24.57l.46.35c.37.35.56.65.56.9 0 .23-.14.57-.44 1-.41.6-.84.9-1.27.9a1.87 1.87 0 0 1-1.15-.54 2.81 2.81 0 0 0-.29-.24 1.83 1.83 0 0 0-.97-.24c-.4 0-.72.1-.98.29a.91.91 0 0 0-.39.78c0 .33.16.6.47.8.35.23.74.37 1.15.43a15 15 0 0 1 1.51.33 9.7 9.7 0 0 1 1.51.55c.46.22.85.6 1.16 1.14.3.54.46 1.2.46 2 0 .78-.16 1.48-.47 2.08a3.6 3.6 0 0 1-1.24 1.4c-.98.64-2.03.96-3.15.96-.54 0-1.09-.07-1.62-.2a4.3 4.3 0 0 1-1.24-.53 4.38 4.38 0 0 1-1.34-1.12l-.17-.2Zm28.27 3.17c0 .17.08.37.26.58l.08.1c.14.2.39.41.74.63a3.36 3.36 0 0 0 1.57.4 3.1 3.1 0 0 0 1.74-.53c.29-.2.52-.46.68-.77.18-.35.27-.75.26-1.14 0-.44-.09-.8-.26-1.1a1.47 1.47 0 0 0-.63-.62 7.48 7.48 0 0 0-1.66-.5c-.23-.02-.44-.1-.64-.22a.52.52 0 0 1-.25-.45.5.5 0 0 1 .21-.43.9.9 0 0 1 .54-.16 1 1 0 0 1 .54.13l.15.14.12.1c.2.13.38.2.52.2.24 0 .47-.17.7-.5.16-.24.24-.42.24-.56 0-.13-.1-.3-.3-.49l-.26-.19a3.66 3.66 0 0 0-1.79-.47 2.4 2.4 0 0 0-1.78.66 2.1 2.1 0 0 0-.65 1.53c-.01.39.07.76.25 1.1.15.28.37.51.64.67a5.3 5.3 0 0 0 1.64.59c.23.03.44.11.64.22.17.1.25.24.25.39 0 .5-.3.76-.93.76a.95.95 0 0 1-.48-.16c-.15-.08-.29-.2-.4-.32-.34-.34-.6-.5-.78-.5a.76.76 0 0 0-.53.24c-.29.28-.43.5-.43.67Zm10.83-.31.18-.13c.22-.14.38-.2.48-.2.2 0 .43.18.67.56.15.23.22.42.22.56a.49.49 0 0 1-.13.35c-.1.1-.2.18-.32.25l-.34.2a3.88 3.88 0 0 1-2.63.3 4.13 4.13 0 0 1-1.93-1.14 3.89 3.89 0 0 1-.01-5c.27-.28.58-.51.93-.7a4.04 4.04 0 0 1 1.97-.54c.59.02 1.17.17 1.69.44l.24.14.28.18c.17.14.26.3.26.48 0 .2-.08.4-.2.55-.27.36-.5.54-.7.54-.13 0-.3-.07-.52-.22a1.73 1.73 0 0 0-1.12-.34c-.43 0-.86.15-1.28.45-.21.16-.39.38-.5.62a2.15 2.15 0 0 0 0 1.81c.12.25.3.47.51.63a2.14 2.14 0 0 0 1.86.37c.13-.04.27-.1.39-.16Zm7.12-5.28a.45.45 0 0 0-.11.13.79.79 0 0 0-.1.27c-.01.11-.02.23-.01.34v2.05h-2.66v-2.04c.01-.17 0-.35-.05-.52-.08-.25-.36-.37-.83-.37-.42 0-.69.1-.78.27a.79.79 0 0 0-.1.27v5.9c-.02.17 0 .35.05.52.08.25.36.37.82.37.43 0 .7-.09.78-.27a.76.76 0 0 0 .1-.27l.02-.34v-2.04h2.65v2.03c-.01.17.01.35.06.52.08.25.35.37.82.37.43 0 .69-.09.78-.27a.79.79 0 0 0 .1-.27l.01-.34v-5.56c0-.17-.01-.35-.05-.52a.44.44 0 0 0-.14-.2.77.77 0 0 0-.26-.12 1.7 1.7 0 0 0-.46-.05c-.16 0-.33.02-.48.06a.45.45 0 0 0-.16.08Zm6.05-.23c1 0 1.85.36 2.58 1.07.72.72 1.09 1.6 1.09 2.66a3.81 3.81 0 0 1-2.2 3.54c-.44.2-.92.29-1.4.28a3.47 3.47 0 0 1-2.6-1.1 3.63 3.63 0 0 1-1.06-2.63 4.03 4.03 0 0 1 1.1-2.77 3.58 3.58 0 0 1 2.49-1.05Zm-1.82 3.78c0 .6.2 1.07.58 1.44.38.37.8.56 1.28.56s.9-.18 1.29-.54c.38-.36.57-.85.57-1.46a1.93 1.93 0 0 0-1.87-2.01 1.93 1.93 0 0 0-1.85 2Zm12.42-2.7a3.55 3.55 0 0 0-5.87 1.18 4.04 4.04 0 0 0-.03 2.98c.18.45.45.86.8 1.2a3.48 3.48 0 0 0 2.58 1.11 3.37 3.37 0 0 0 2.57-1.12 3.81 3.81 0 0 0 1.04-2.7c0-1.06-.37-1.94-1.1-2.66Zm-3.82 4.14a1.92 1.92 0 0 1-.58-1.44 1.93 1.93 0 0 1 1.85-2.01 1.93 1.93 0 0 1 1.86 2.01 1.9 1.9 0 0 1-1.85 2c-.47 0-.9-.19-1.28-.56Zm7.59.73h2.73c.22 0 .38.02.48.07a.38.38 0 0 1 .2.24c.07.28.07.57 0 .85a.34.34 0 0 1-.17.22c-.16.07-.34.1-.52.1h-3.6c-.47 0-.75-.13-.83-.38a1.55 1.55 0 0 1-.06-.51v-5.57c0-.11 0-.23.02-.34.01-.1.05-.18.1-.27.09-.18.35-.27.77-.27.47 0 .75.13.83.37.04.17.06.35.05.52v4.97Zm-49.21 2.7c.02.18.03.37.03.57v.32a7.17 7.17 0 0 1-.82 2.95 5.64 5.64 0 0 1-3.64 2.86l.49 7.95a1.73 1.73 0 0 1-3.09 1.18l-6.94-8.8H43.2c-.55.05-2.69.09-4.41-1.4-1.27-1.08-1.96-2.65-2.05-4.67v-.37c-.01-.2 0-.39.02-.58.03-.15.1-.3.19-.43.1-.15.28-.27.53-.33a5.02 5.02 0 0 1 2 0c.24.07.41.18.51.34.09.14.15.29.18.44.02.2.03.38.03.58v.26c.06 1 .34 1.72.84 2.15.74.63 1.84.57 1.9.57h27.12a1.73 1.73 0 0 1 1.36.65l4.04 5.12-.25-4.06a1.73 1.73 0 0 1 1.73-1.83c1.18 0 1.95-.4 2.4-1.27.23-.43.37-.89.41-1.37v-.28c0-.2.01-.39.03-.58.03-.15.1-.3.19-.42.1-.16.28-.27.53-.34a5.02 5.02 0 0 1 2 0c.24.07.41.18.51.35.09.13.15.28.18.43Zm15.85-14.37h-3.09v-1h1.96c.18 0 .36-.02.52-.07.26-.08.39-.35.39-.82 0-.43-.1-.69-.27-.78a.79.79 0 0 0-.27-.1 2.83 2.83 0 0 0-.35-.01h-1.98v-1.01h3.08c.17 0 .35-.02.52-.06.24-.08.37-.36.37-.82 0-.43-.1-.7-.27-.78a.8.8 0 0 0-.27-.1 2.83 2.83 0 0 0-.34-.01h-3.95c-.35 0-.6.06-.72.18-.13.12-.19.36-.19.7v5.56c0 .18.01.35.06.51.08.26.35.38.82.38h3.97c.17.01.35 0 .52-.06.24-.08.37-.35.37-.82 0-.43-.1-.69-.27-.78a.82.82 0 0 0-.27-.1 3.02 3.02 0 0 0-.34 0Zm6.52-5.26a.47.47 0 0 1 .29-.23c.16-.05.32-.07.48-.06.15 0 .3 0 .45.05.1.02.19.06.27.12.06.05.1.12.12.2.05.17.07.34.06.51v5.56l-.01.35a.81.81 0 0 1-.1.26c-.1.18-.35.27-.78.27-.26 0-.44-.02-.54-.06a.58.58 0 0 1-.25-.19l-2.96-3.92v3.29c0 .12 0 .23-.02.35a.83.83 0 0 1-.1.26c-.09.18-.35.27-.78.27-.41 0-.66-.09-.75-.27a.79.79 0 0 1-.1-.27 3.15 3.15 0 0 1-.02-.35v-5.58c0-.26.04-.44.1-.56a.47.47 0 0 1 .28-.23c.16-.05.33-.07.5-.06.16 0 .32.01.47.05.1.03.17.07.25.13l.23.26a247.5 247.5 0 0 0 2.82 3.8v-3.4c0-.25.03-.43.1-.55Zm8.32 2.6h-1.76c-.17 0-.33.03-.48.1a.33.33 0 0 0-.17.22 1.6 1.6 0 0 0-.04.42c0 .15 0 .29.04.42a.37.37 0 0 0 .17.24.9.9 0 0 0 .44.08h.79v1.09a2.6 2.6 0 0 1-1 .18c-.5 0-.95-.2-1.35-.6a2 2 0 0 1-.6-1.48c0-.58.2-1.04.59-1.4a1.96 1.96 0 0 1 2.35-.26c.28.19.48.28.61.28.21 0 .45-.18.71-.53.15-.22.23-.4.23-.57 0-.16-.09-.31-.27-.44a3.68 3.68 0 0 0-4.88.28 3.52 3.52 0 0 0-1.12 2.66 3.73 3.73 0 0 0 1.1 2.72 3.5 3.5 0 0 0 2.6 1.12c1.12 0 1.96-.29 2.52-.87.19-.2.28-.4.28-.6v-2.21c0-.25-.03-.43-.1-.56-.08-.18-.3-.27-.66-.28Zm3.6 2.95h2.72c.22 0 .38.03.48.08a.39.39 0 0 1 .2.23c.06.28.06.57 0 .85a.34.34 0 0 1-.17.22c-.17.08-.34.11-.52.1h-3.6c-.48 0-.75-.12-.83-.38a1.57 1.57 0 0 1-.06-.5v-5.57c0-.12 0-.23.02-.35a.8.8 0 0 1 .1-.26c.08-.19.34-.28.77-.27.47 0 .75.12.83.37.04.17.06.34.05.52v4.96Zm4.37-5.32-.01.35v5.56c-.01.17 0 .35.06.51.08.26.35.38.82.38.42 0 .69-.09.78-.27a.81.81 0 0 0 .1-.26v-5.91c.01-.18 0-.35-.04-.52-.09-.25-.36-.37-.83-.37-.43 0-.69.08-.78.27a.81.81 0 0 0-.1.26Zm2.93 5.77c-.17-.21-.26-.4-.26-.57 0-.17.14-.4.43-.68a.76.76 0 0 1 .53-.24c.19 0 .45.17.78.5.12.13.25.24.4.33.15.1.31.15.49.15.62 0 .93-.25.93-.76 0-.15-.09-.28-.26-.38-.2-.12-.41-.2-.63-.23a5.46 5.46 0 0 1-1.65-.59 1.66 1.66 0 0 1-.63-.67 2.2 2.2 0 0 1-.26-1.1c0-.58.22-1.1.66-1.53a2.41 2.41 0 0 1 1.79-.65c.37 0 .74.04 1.1.15.32.1.55.2.68.32l.25.19c.2.2.3.35.3.49 0 .13-.07.31-.23.55-.23.33-.46.5-.7.5a1.04 1.04 0 0 1-.64-.3l-.15-.13a1 1 0 0 0-.54-.13.9.9 0 0 0-.54.16.5.5 0 0 0-.21.43c0 .09.02.17.06.25.05.08.11.15.2.2.18.11.4.2.63.22a7.67 7.67 0 0 1 1.66.5c.27.13.49.35.63.62.17.3.26.66.26 1.1 0 .4-.09.79-.26 1.14-.16.31-.4.58-.69.77a3.11 3.11 0 0 1-2.62.41 2.42 2.42 0 0 1-.68-.28c-.35-.22-.6-.42-.74-.63l-.09-.1Zm10.64-6.17a.44.44 0 0 0-.12.14.79.79 0 0 0-.09.26l-.02.35v2.05h-2.65v-2.04c0-.18-.01-.35-.05-.52-.09-.25-.36-.37-.83-.37-.43 0-.69.08-.78.27a.79.79 0 0 0-.1.26l-.01.35v5.55c0 .18.01.35.06.52.08.25.35.37.82.37.43 0 .69-.09.78-.27a.8.8 0 0 0 .1-.26l.01-.35V21.2h2.65v2.03c0 .18.02.36.06.53.09.24.36.37.82.37.43 0 .7-.1.79-.27a.83.83 0 0 0 .1-.27v-5.91c.01-.18 0-.35-.04-.52a.47.47 0 0 0-.14-.2.81.81 0 0 0-.26-.12c-.15-.04-.3-.06-.46-.05-.17 0-.33.01-.49.06a.44.44 0 0 0-.15.07Z"/><svg id="school_violet" fill="#5e288a" viewBox="0 -2 140 56"><use href="#source"/></svg><svg id="school_white" fill="#fff" viewBox="0 -2 140 56"><use href="#source"/></svg></svg>
