<svg xmlns="http://www.w3.org/2000/svg" viewBox="0 0 32 32"><path d="M16 5.06c-1.89 0-3.78.03-4.73.08-1.83.08-3.45.48-4.8 1.76-1.34 1.28-1.76 2.83-1.85 4.58-.1 1.81-.1 7.22 0 9.03.09 1.75.5 3.3 1.85 4.58 1.35 1.28 2.97 1.68 4.8 1.77 1.9.1 7.57.1 9.46 0 1.83-.08 3.46-.48 4.8-1.77 1.34-1.28 1.76-2.83 1.85-4.58.1-1.8.1-7.2 0-9.02-.09-1.75-.5-3.3-1.85-4.58-1.34-1.28-2.97-1.68-4.8-1.77-.95-.05-2.84-.08-4.73-.08zm6.12 3.8c.75 0 1.37.58 1.37 1.3 0 .73-.62 1.31-1.37 1.31-.76 0-1.37-.59-1.37-1.3 0-.73.61-1.32 1.37-1.32zM16 10.38c3.25 0 5.88 2.5 5.88 5.61 0 3.1-2.63 5.6-5.88 5.6A5.74 5.74 0 0 1 10.13 16c0-3.1 2.62-5.6 5.87-5.6zm0 1.96A3.74 3.74 0 0 0 12.18 16 3.74 3.74 0 0 0 16 19.65c2.1 0 3.82-1.64 3.82-3.65A3.74 3.74 0 0 0 16 12.35Z"/></svg>