<svg xmlns="http://www.w3.org/2000/svg" viewBox="0 0 24 24"><path fill="none" stroke="#000" stroke-linecap="round" stroke-linejoin="round" stroke-width="1.8" d="M13.95 6.55c.94.18 1.8.61 2.48 1.25a4.5 4.5 0 0 1 1.32 2.36m-3.8-7.26a8.86 8.86 0 0 1 5.17 2.35 8.05 8.05 0 0 1 2.48 4.9"/><path d="M20.64 20.17v-2.74c0-.45-.15-.88-.46-1.23-.3-.34-.73-.56-1.2-.62a12.9 12.9 0 0 1-2.7-.64 2.02 2.02 0 0 0-2.03.4l-1.23 1.17c-2.4-1.3-4.4-3.2-5.77-5.48l1.22-1.16a1.74 1.74 0 0 0 .43-1.93c-.32-.82-.54-1.68-.67-2.56a1.8 1.8 0 0 0-.65-1.13c-.35-.29-.8-.44-1.27-.44H3.42a2.01 2.01 0 0 0-1.42.6 1.8 1.8 0 0 0-.5 1.39 18.31 18.31 0 0 0 8.73 13.39c2.5 1.54 5.35 2.5 8.3 2.8a2.02 2.02 0 0 0 1.48-.47 1.83 1.83 0 0 0 .63-1.35Z"/></svg>
