<svg xmlns="http://www.w3.org/2000/svg" viewBox="0 0 32 32"><path d="M24.38 9.6c-.3 3.16-1.6 10.84-2.27 14.38-.28 1.5-.83 2-1.37 2.05-1.16.1-2.04-.77-3.16-1.5-1.76-1.16-2.76-1.88-4.47-3-1.97-1.3-.7-2.02.43-3.19.3-.3 5.42-4.96 5.51-5.38.02-.05.03-.25-.09-.35-.12-.1-.29-.07-.41-.04-.18.04-3 1.9-8.44 5.57a3.8 3.8 0 0 1-2.17.8c-.71-.01-2.09-.4-3.1-.73-1.26-.41-2.25-.63-2.17-1.32.05-.36.54-.73 1.49-1.1 5.83-2.54 9.72-4.22 11.66-5.03 5.56-2.3 6.71-2.7 7.46-2.72.17 0 .54.04.78.23.16.14.26.33.28.54.04.26.06.53.04.8z"/></svg>