<svg xmlns="http://www.w3.org/2000/svg" viewBox="0 0 24 24"><path d="M12 .33A11.58 11.58 0 0 0 1.96 17.67l-1.64 6 6.13-1.62a11.67 11.67 0 0 0 17.2-10.16c0-3.08-1.31-5.98-3.5-8.17A11.47 11.47 0 0 0 12 .33zm0 1.95c2.56 0 4.98 1 6.79 2.82a9.65 9.65 0 0 1 2.92 6.8A9.72 9.72 0 0 1 7.1 20.17l-.35-.2-3.64.95.97-3.55-.23-.36A9.62 9.62 0 0 1 12 2.29zM7.9 6.56c-.2 0-.51.07-.78.36-.26.29-1 .99-1 2.41 0 1.42 1.03 2.8 1.17 2.99.14.2 2.04 3.1 4.94 4.36 1.83.8 2.55.86 3.47.73.55-.09 1.7-.7 1.94-1.38.24-.67.24-1.25.17-1.37-.07-.13-.26-.2-.55-.35-.28-.14-1.7-.84-1.97-.93-.27-.1-.46-.15-.65.14-.2.3-.75.94-.92 1.14-.17.2-.34.22-.62.07-1.7-.85-2.82-1.52-3.94-3.44-.3-.5.3-.47.85-1.58.1-.19.05-.35-.02-.5-.08-.14-.65-1.57-.9-2.15-.23-.56-.47-.48-.64-.49a9.29 9.29 0 0 0-.56-.01z"/></svg>