<svg xmlns="http://www.w3.org/2000/svg"><style>:root svg:not(:target){display:none}</style><svg viewBox="0 0 24 24" id="banner-item-marker"><path fill="#ffd754" d="M11.35 0C10.65 4.5 7.3 8.32 4 10.6c4.19 2.75 7.46 9.2 7.35 13.4 1.15-5.29 2.06-9.97 5.65-13.4-3.19-2.67-5.55-6.85-5.65-10.6Zm2.64 10.9a22.97 22.97 0 0 0-2.73 4.93 19.32 19.32 0 0 0-4-5.16 22.11 22.11 0 0 0 3.47-3.86 12.8 12.8 0 0 0 3.26 4.1z"></path></svg><svg viewBox="0 0 21 17" id="checked"><path fill="none" stroke="#2F2F2F" stroke-width="2" d="M1 1h15v15H1z"></path><path fill="none" stroke="#262626" stroke-linecap="round" stroke-linejoin="round" stroke-width="2" d="M20 1 9 12 4 7"></path></svg><svg viewBox="0 0 48 48" id="cross-l"><path stroke="#000" stroke-linecap="round" stroke-width="3" d="m14 14 20 20m0-20L14 34"></path></svg><svg viewBox="0 0 24 24" id="cross-s"><path stroke="#000" stroke-linecap="round" stroke-width="2" d="M6 18 18 6m0 12L6 6"></path></svg><svg viewBox="0 0 24 24" id="info"><path d="M11 13V5.5h2V13h-2Zm0 4v-2h2v2h-2Z"></path></svg><svg viewBox="0 0 32 32" id="instagram"><path d="M16 5.06c-1.89 0-3.78.03-4.73.08-1.83.08-3.45.48-4.8 1.76-1.34 1.28-1.76 2.83-1.85 4.58-.1 1.81-.1 7.22 0 9.03.09 1.75.5 3.3 1.85 4.58 1.35 1.28 2.97 1.68 4.8 1.77 1.9.1 7.57.1 9.46 0 1.83-.08 3.46-.48 4.8-1.77 1.34-1.28 1.76-2.83 1.85-4.58.1-1.8.1-7.2 0-9.02-.09-1.75-.5-3.3-1.85-4.58-1.34-1.28-2.97-1.68-4.8-1.77-.95-.05-2.84-.08-4.73-.08zm6.12 3.8c.75 0 1.37.58 1.37 1.3 0 .73-.62 1.31-1.37 1.31-.76 0-1.37-.59-1.37-1.3 0-.73.61-1.32 1.37-1.32zM16 10.38c3.25 0 5.88 2.5 5.88 5.61 0 3.1-2.63 5.6-5.88 5.6A5.74 5.74 0 0 1 10.13 16c0-3.1 2.62-5.6 5.87-5.6zm0 1.96A3.74 3.74 0 0 0 12.18 16 3.74 3.74 0 0 0 16 19.65c2.1 0 3.82-1.64 3.82-3.65A3.74 3.74 0 0 0 16 12.35Z"></path></svg><svg viewBox="0 0 48 48" id="link"><path fill="none" stroke="#000" stroke-linecap="round" stroke-linejoin="round" stroke-width="3" d="M21.67 26.33a7.78 7.78 0 0 0 11.73.84l4.66-4.66a7.78 7.78 0 0 0-11-11l-2.67 2.66m3.5 9.05a7.78 7.78 0 0 0-11.73-.84l-4.67 4.67a7.78 7.78 0 0 0 11 11l2.66-2.66"></path></svg><svg viewBox="0 0 24 24" id="mail"><path d="M4 3.5a2 2 0 0 0-2 2v1.82a.9.9 0 0 1 .39.09l9.09 4.32c.3.14.64.14.94 0l9.2-4.32a.9.9 0 0 1 .38-.09V5.5a2 2 0 0 0-2-2H4Zm18 5.72-8.82 4.14a2.9 2.9 0 0 1-2.48 0L2 9.21v9.28c0 1.1.9 2 2 2h16a2 2 0 0 0 2-2V9.22Z"></path></svg><svg viewBox="0 0 24 24" id="phone"><path fill="none" stroke="#000" stroke-linecap="round" stroke-linejoin="round" stroke-width="1.8" d="M13.95 6.55c.94.18 1.8.61 2.48 1.25a4.5 4.5 0 0 1 1.32 2.36m-3.8-7.26a8.86 8.86 0 0 1 5.17 2.35 8.05 8.05 0 0 1 2.48 4.9"></path><path d="M20.64 20.17v-2.74c0-.45-.15-.88-.46-1.23-.3-.34-.73-.56-1.2-.62a12.9 12.9 0 0 1-2.7-.64 2.02 2.02 0 0 0-2.03.4l-1.23 1.17c-2.4-1.3-4.4-3.2-5.77-5.48l1.22-1.16a1.74 1.74 0 0 0 .43-1.93c-.32-.82-.54-1.68-.67-2.56a1.8 1.8 0 0 0-.65-1.13c-.35-.29-.8-.44-1.27-.44H3.42a2.01 2.01 0 0 0-1.42.6 1.8 1.8 0 0 0-.5 1.39 18.31 18.31 0 0 0 8.73 13.39c2.5 1.54 5.35 2.5 8.3 2.8a2.02 2.02 0 0 0 1.48-.47 1.83 1.83 0 0 0 .63-1.35Z"></path></svg><svg viewBox="0 0 48 48" id="play"><path d="M33.5 21.4a3 3 0 0 1 0 5.2l-12 6.93a3 3 0 0 1-4.5-2.6V17.07a3 3 0 0 1 4.5-2.6l12 6.93Z"></path></svg><svg viewBox="0 0 32 32" id="telegram"><path d="M24.38 9.6c-.3 3.16-1.6 10.84-2.27 14.38-.28 1.5-.83 2-1.37 2.05-1.16.1-2.04-.77-3.16-1.5-1.76-1.16-2.76-1.88-4.47-3-1.97-1.3-.7-2.02.43-3.19.3-.3 5.42-4.96 5.51-5.38.02-.05.03-.25-.09-.35-.12-.1-.29-.07-.41-.04-.18.04-3 1.9-8.44 5.57a3.8 3.8 0 0 1-2.17.8c-.71-.01-2.09-.4-3.1-.73-1.26-.41-2.25-.63-2.17-1.32.05-.36.54-.73 1.49-1.1 5.83-2.54 9.72-4.22 11.66-5.03 5.56-2.3 6.71-2.7 7.46-2.72.17 0 .54.04.78.23.16.14.26.33.28.54.04.26.06.53.04.8z"></path></svg><svg viewBox="0 0 24 24" id="whatsapp"><path d="M12 .33A11.58 11.58 0 0 0 1.96 17.67l-1.64 6 6.13-1.62a11.67 11.67 0 0 0 17.2-10.16c0-3.08-1.31-5.98-3.5-8.17A11.47 11.47 0 0 0 12 .33zm0 1.95c2.56 0 4.98 1 6.79 2.82a9.65 9.65 0 0 1 2.92 6.8A9.72 9.72 0 0 1 7.1 20.17l-.35-.2-3.64.95.97-3.55-.23-.36A9.62 9.62 0 0 1 12 2.29zM7.9 6.56c-.2 0-.51.07-.78.36-.26.29-1 .99-1 2.41 0 1.42 1.03 2.8 1.17 2.99.14.2 2.04 3.1 4.94 4.36 1.83.8 2.55.86 3.47.73.55-.09 1.7-.7 1.94-1.38.24-.67.24-1.25.17-1.37-.07-.13-.26-.2-.55-.35-.28-.14-1.7-.84-1.97-.93-.27-.1-.46-.15-.65.14-.2.3-.75.94-.92 1.14-.17.2-.34.22-.62.07-1.7-.85-2.82-1.52-3.94-3.44-.3-.5.3-.47.85-1.58.1-.19.05-.35-.02-.5-.08-.14-.65-1.57-.9-2.15-.23-.56-.47-.48-.64-.49a9.29 9.29 0 0 0-.56-.01z"></path></svg><svg viewBox="0 0 32 32" id="youtube"><path d="M27.06 10.6a2.85 2.85 0 0 0-2.04-2c-1.8-.47-9.02-.47-9.02-.47s-7.22 0-9.02.48a2.85 2.85 0 0 0-2.05 1.99c-.48 1.75-.48 5.42-.48 5.42s0 3.66.48 5.42c.27.96 1.05 1.7 2.05 1.95 1.8.48 9.02.48 9.02.48s7.22 0 9.02-.48c1-.25 1.78-.99 2.05-1.95.48-1.76.48-5.42.48-5.42s0-3.67-.49-5.42zm-7.39 5.42-6.03 3.32V12.7Z"></path></svg><svg viewBox="0 0 90 90" id="arrow_curved-1"><path fill="none" stroke="#e71985" stroke-linecap="round" stroke-linejoin="round" stroke-width="2" d="m86.95 30.57.02 9-9 .02M3.6 68.34l.4-1.2m0 0c9.72-27.9 39.18-70.8 82.95-27.6M4 67.15l-.01.03m0-.02c9.3-27.86 37.11-72.8 81.5-29"></path></svg><svg viewBox="0 0 70 40" id="arrow_curved-3"><path fill="#7831B2" d="M6.72 34.03a1 1 0 1 0-1.44 1.4l1.44-1.4ZM68.2 11.32a1 1 0 0 0 .77-1.2l-1.9-8.8a1 1 0 0 0-1.95.43l1.68 7.82-7.8 1.68a1 1 0 1 0 .42 1.95l8.8-1.88ZM5.28 35.42c2.44 2.52 4.92 3.62 7.47 3.46 2.5-.16 4.85-1.5 7.09-3.4l-1.3-1.53c-2.11 1.79-4.05 2.82-5.91 2.93-1.8.12-3.75-.62-5.91-2.85l-1.44 1.4Zm14.56.05c3.07-2.6 6.17-6.44 9.4-10.38 3.27-3.98 6.7-8.1 10.49-11.43 3.78-3.32 7.84-5.77 12.35-6.5 4.48-.72 9.54.25 15.38 4.02l1.08-1.68c-6.17-4-11.72-5.12-16.77-4.31-5.03.8-9.43 3.52-13.36 6.97-3.93 3.45-7.45 7.7-10.7 11.66-3.3 4-6.27 7.67-9.16 10.13l1.29 1.52Zm-14.49.1c2.43 2.51 4.9 3.6 7.45 3.4 2.49-.18 4.82-1.57 7.05-3.5l-1.31-1.52c-2.1 1.84-4.04 2.9-5.89 3.03-1.79.14-3.71-.58-5.86-2.8l-1.44 1.4Zm14.5-.1c3.07-2.68 6.17-6.62 9.4-10.67 3.26-4.1 6.69-8.34 10.47-11.77 3.79-3.43 7.85-5.98 12.36-6.77 4.48-.79 9.54.13 15.38 3.91l1.08-1.68c-6.18-4-11.74-5.09-16.8-4.2-5.04.88-9.44 3.7-13.36 7.26-3.92 3.56-7.44 7.93-10.7 12-3.27 4.1-6.25 7.88-9.14 10.4l1.31 1.51Z"></path></svg><svg viewBox="0 0 86 86" id="arrow_curved-4"><path fill="#FAD352" d="M4.23 81.32a1 1 0 1 0 .82 1.83l-.82-1.83Zm79.5-72.4a1 1 0 0 0-.19-1.4L76.35 2.1a1 1 0 1 0-1.2 1.6l6.39 4.81-4.82 6.39a1 1 0 1 0 1.6 1.2l5.42-7.18ZM6.5 80.29a1 1 0 1 0 .81 1.83l-.81-1.83Zm-1.44 2.86c12.88-5.78 20.45-12.83 25.5-20.32 5-7.45 7.5-15.32 10.24-22.53 2.76-7.25 5.79-13.89 11.84-19.27 6.04-5.37 15.22-9.6 30.45-11.72l-.28-1.98c-15.47 2.16-25.06 6.48-31.5 12.2-6.43 5.73-9.6 12.76-12.38 20.06-2.8 7.35-5.2 14.92-10.04 22.13-4.82 7.16-12.08 13.97-24.65 19.6l.82 1.83Zm2.25-1.03c12.9-5.78 20.24-12.84 24.94-20.36 4.67-7.47 6.7-15.36 8.98-22.58 2.3-7.27 4.89-13.9 10.58-19.27 5.7-5.36 14.63-9.58 29.86-11.72l-.28-1.98c-15.46 2.17-24.85 6.5-30.95 12.25-6.1 5.75-8.8 12.8-11.11 20.11-2.34 7.36-4.28 14.93-8.78 22.13-4.47 7.15-11.5 13.97-24.05 19.6l.81 1.82Z"></path></svg><svg viewBox="0 0 24 24" id="arrow_sharp"><path fill="none" stroke="#000" stroke-linecap="round" stroke-linejoin="round" stroke-width="2" d="m6 15 6-6 6 6"></path></svg><svg viewBox="0 0 48 48" id="arrow_smooth"><path fill="none" stroke="#000" stroke-linecap="round" stroke-width="3" d="m13.4 28.67 8.49-8.48a3 3 0 0 1 4.24 0l8.48 8.5"></path></svg><svg viewBox="0 0 24 24" id="radio_button"><circle cx="12" cy="12" r="8.5" fill="none" stroke="#000" stroke-width="3"></circle></svg><svg viewBox="0 0 24 24" id="radio_tick"><circle cx="12" cy="12" r="8.5" fill="none" stroke="#000" stroke-width="3"></circle><circle cx="12" cy="12" r="4.7" fill="0"></circle></svg><svg viewBox="0 0 24 24" id="slider_button"><circle cx="12" cy="12" r="3.5" fill="none" stroke="#000" stroke-width="3"></circle></svg><svg viewBox="0 0 24 24" id="slider_tick"><circle cx="12" cy="12" r="5"></circle></svg></svg>